<svg id="Layer_1" data-name="Layer 1" xmlns="http://www.w3.org/2000/svg" xmlns:xlink="http://www.w3.org/1999/xlink" viewBox="0 0 570.2 497.24"><defs><style>.cls-1{fill:url(#linear-gradient);}.cls-2{fill:url(#linear-gradient-2);}.cls-3,.cls-9{fill:#294596;}.cls-12,.cls-3,.cls-4,.cls-7{opacity:0.5;}.cls-4{fill:#70250d;}.cls-5{fill:url(#linear-gradient-3);}.cls-6{fill:url(#linear-gradient-4);}.cls-7{fill:url(#linear-gradient-5);}.cls-8{fill:#8e1a13;}.cls-10{fill:url(#linear-gradient-6);}.cls-11{fill:url(#linear-gradient-7);}.cls-12{fill:#761a0e;}.cls-13{fill:url(#linear-gradient-8);}.cls-14{fill:url(#linear-gradient-9);}</style><linearGradient id="linear-gradient" x1="647.73" y1="661.44" x2="878.6" y2="661.44" gradientUnits="userSpaceOnUse"><stop offset="0.38" stop-color="#e30f16"/><stop offset="1" stop-color="#ffdc04"/></linearGradient><linearGradient id="linear-gradient-2" x1="607.71" y1="733.65" x2="812.08" y2="733.65" gradientUnits="userSpaceOnUse"><stop offset="0" stop-color="#ffdc04"/><stop offset="0.71" stop-color="#e30f16"/></linearGradient><linearGradient id="linear-gradient-3" x1="413.05" y1="488.62" x2="674.96" y2="488.62" gradientUnits="userSpaceOnUse"><stop offset="0.17" stop-color="#e30f16"/><stop offset="1" stop-color="#ffdc04"/></linearGradient><linearGradient id="linear-gradient-4" x1="375.55" y1="488.62" x2="615.17" y2="488.62" gradientUnits="userSpaceOnUse"><stop offset="0" stop-color="#ffdc04"/><stop offset="0.88" stop-color="#e30f16"/></linearGradient><linearGradient id="linear-gradient-5" x1="731.53" y1="737.65" x2="731.77" y2="737.65" gradientUnits="userSpaceOnUse"><stop offset="0" stop-color="#ffdc04"/><stop offset="1" stop-color="#e30f16"/><stop offset="1"/></linearGradient><linearGradient id="linear-gradient-6" x1="782.88" y1="420.84" x2="851.6" y2="420.84" gradientUnits="userSpaceOnUse"><stop offset="0" stop-color="#ffdc04"/><stop offset="0.86" stop-color="#e30f16"/></linearGradient><linearGradient id="linear-gradient-7" x1="782.88" y1="420.84" x2="874.51" y2="420.84" xlink:href="#linear-gradient-3"/><linearGradient id="linear-gradient-8" x1="385.63" y1="750.65" x2="488.72" y2="750.65" xlink:href="#linear-gradient-6"/><linearGradient id="linear-gradient-9" x1="385.63" y1="750.65" x2="523.09" y2="750.65" xlink:href="#linear-gradient-3"/></defs><path class="cls-1" d="M878.6,553.09V703.73c0,73-61,132.13-136.25,132.13a137.91,137.91,0,0,1-94.62-37.08,97.6,97.6,0,0,0,66.4,25.74c53.21,0,96.34-41.82,96.34-93.42V487C848.09,487,878.6,516.6,878.6,553.09Z" transform="translate(-375.55 -338.62)"/><path class="cls-2" d="M812.08,733.66c0,51.6-43.14,93.42-96.34,93.42a97.6,97.6,0,0,1-66.41-25.74s0,0,0,0l-.06,0-1.61-1.54-.63-.62c-.32-.31-.63-.61-.93-.92l-.09-.09a.2.2,0,0,1-.06-.07l-1.31-1.35a129.46,129.46,0,0,1-36.88-89.06c0-.43,0-.87,0-1.31h0c0-36.49,30.5-66.07,68.13-66.07v66.07c0,.45,0,.9,0,1.34s0,.67,0,1,0,.71,0,1.06c0,.56.06,1.12.11,1.67s.09,1.13.15,1.69l.15,1.34a.09.09,0,0,0,0,.05c0,.33.09.67.14,1a.77.77,0,0,0,0,.15c0,.36.11.71.16,1.07.14.86.3,1.71.47,2.56.05.26.11.52.17.78.12.59.26,1.18.41,1.77s.26,1,.4,1.54c.2.72.4,1.43.63,2.14q.12.42.27.84c.4,1.26.86,2.5,1.34,3.72.09.23.18.46.28.69.56,1.37,1.17,2.73,1.83,4,.16.33.32.66.5,1s.26.51.4.76.42.8.64,1.19a.22.22,0,0,0,0,.08c.26.47.52.94.8,1.4s.55.92.84,1.37h0q.84,1.35,1.77,2.67c.35.51.7,1,1.06,1.48.17.22.33.45.51.67s.47.62.72.93.38.5.59.75c.34.42.68.84,1,1.26q.26.32.54.63c.28.33.56.64.84.95s.6.66.92,1,.62.66.95,1,.75.76,1.14,1.13.65.63,1,.92.34.32.51.47.5.46.76.68l1.23,1.08.13.1c.41.35.82.68,1.24,1s.85.67,1.27,1,.67.5,1,.74c.53.41,1.07.78,1.63,1.16l1,.66a1.37,1.37,0,0,1,.2.13c.77.51,1.56,1,2.36,1.48l1.11.66.1,0c.37.22.76.43,1.14.63s.72.41,1.1.6l.72.38c.25.13.49.26.74.37,1,.5,2,1,3,1.39l1.51.65q1.34.55,2.7,1.05l1.18.41.79.26q.79.27,1.59.51c1.07.31,2.15.61,3.24.89l2,.47c.55.12,1.11.24,1.68.34l.2,0,.4.08,1.9.32c.7.11,1.41.21,2.11.3l1.63.17.21,0c.33,0,.66.07,1,.09h0l.77,0H739l1.09.07,1.63.07c.74,0,1.46,0,2.2,0h1.55l.53,0,.83,0h.57l.38,0,.24,0h0c.35,0,.7,0,1-.07.61,0,1.23-.1,1.84-.16.35,0,.7-.07,1-.1.88-.11,1.76-.22,2.63-.36l1.07-.17,1.15-.2.74-.15.78-.15.67-.15.26-.05.85-.2.49-.12.78-.2.29-.07a2,2,0,0,0,.35-.1h0l1-.26.59-.17.72-.22h0l.11,0c.72-.22,1.45-.45,2.16-.7s1.43-.5,2.13-.77l.1,0,1.68-.68.2-.08.24-.1.09,0,1.83-.81.25-.12c.36-.16.7-.32,1-.5h0c.43-.2.86-.41,1.27-.63l1.31-.68,1.29-.72h0c.35-.2.71-.4,1-.61l1.34-.81,0,0c.8-.49,1.58-1,2.35-1.54l0,0c.38-.25.76-.53,1.14-.8s.78-.55,1.16-.84l0,0c.38-.27.74-.55,1.1-.84l0,0h0c.36-.28.72-.56,1.07-.86l0,0c.36-.28.7-.57,1.06-.88.73-.61,1.43-1.25,2.13-1.88.36-.32.7-.64,1-1l1-1c.35-.33.67-.67,1-1s.65-.66.94-1l0,0c.33-.35.65-.7,1-1.06.63-.71,1.24-1.44,1.82-2.17.29-.36.58-.72.84-1.08s.59-.76.86-1.14l.83-1.14a.1.1,0,0,1,0,0c.27-.38.53-.78.8-1.17.79-1.16,1.54-2.35,2.23-3.56l0,0c.67-1.14,1.3-2.31,1.89-3.5h0a63.19,63.19,0,0,0,5.65-16.42A92.06,92.06,0,0,1,812.08,733.66Z" transform="translate(-375.55 -338.62)"/><path class="cls-3" d="M931.73,647.44l-.25,0-.76,0Z" transform="translate(-375.55 -338.62)"/><path class="cls-3" d="M943.84,645.68l-.86.2-.25,0Z" transform="translate(-375.55 -338.62)"/><path class="cls-4" d="M810.66,719A63.19,63.19,0,0,1,805,735.42h0c-.59,1.19-1.22,2.36-1.89,3.5l0,.05c-.69,1.21-1.44,2.4-2.23,3.56l-.8,1.18s0,0,0,0c-.27.38-.55.77-.83,1.14s-.55.76-.86,1.14-.55.72-.84,1.08c-.58.74-1.19,1.46-1.82,2.17-.31.36-.63.71-1,1.06l0,0c-.29.35-.61.67-.94,1s-.64.68-1,1l-1.05,1c-.34.34-.68.66-1,1l-.36.32c-7.17,39-40.78,69.1-82.21,72.27,2.47.19,4.95.28,7.47.28,53.2,0,96.34-41.82,96.34-93.42A92.06,92.06,0,0,0,810.66,719Z" transform="translate(-375.55 -338.62)"/><path class="cls-3" d="M945.74,645.19a2.75,2.75,0,0,1-.34.1l-.29.07Z" transform="translate(-375.55 -338.62)"/><path class="cls-5" d="M675,475.18V638.62a75,75,0,0,1-75-75V498c.08-.64.16-1.28.22-1.92,0-.37.07-.73.09-1.1s.07-.81.1-1.22,0-.53,0-.79q.06-1,.09-2c0-.79,0-1.58,0-2.38v-.12c0-1.16,0-2.32-.09-3.47a74,74,0,0,0-2.37-15.5c-.26-1-.55-2-.86-3-.56-1.84-1.2-3.64-1.89-5.41-.45-1.12-.92-2.23-1.42-3.33s-1-2.22-1.59-3.3-1.12-2.13-1.72-3.17a75.32,75.32,0,0,0-30.93-29.47q-2.41-1.23-4.94-2.3a72,72,0,0,0-7.42-2.69c-1-.3-2-.59-3-.85a75,75,0,1,0-20.92,147.61,112.54,112.54,0,0,1-104.29-76.08l-.12-.36c-.42-1.25-.83-2.5-1.21-3.76s-.81-2.81-1.17-4.22c-.18-.72-.36-1.44-.53-2.17-.26-1.08-.5-2.17-.72-3.26-.16-.78-.31-1.57-.45-2.35a112.69,112.69,0,0,1-1.51-11.72q-.19-2.64-.27-5.31c0-1.08-.05-2.16-.05-3.24s0-2.25.06-3.37c0-.8.05-1.6.09-2.41s.1-1.9.18-2.85.15-1.9.25-2.84q.33-3.33.87-6.59c.09-.61.2-1.21.3-1.8.18-1,.38-2,.59-3.05.17-.81.35-1.62.53-2.43s.43-1.81.66-2.71a112.56,112.56,0,0,1,106.07-84.41c1,0,1.93,0,2.9,0l2,0,1.78.05,1.5.05A149.86,149.86,0,0,1,675,475.18Z" transform="translate(-375.55 -338.62)"/><path class="cls-6" d="M615.17,608.88a149.46,149.46,0,0,1-89.62,29.72,150,150,0,0,1-2.9-300,112.56,112.56,0,0,0-106.07,84.41c-.23.89-.45,1.8-.66,2.71s-.37,1.61-.53,2.43c-.21,1-.41,2-.59,3.05q-.17.9-.3,1.8-.54,3.25-.87,6.59c-.1.94-.18,1.89-.25,2.84s-.14,1.9-.18,2.85-.08,1.6-.09,2.41c0,1.12-.06,2.24-.06,3.37s0,2.16.05,3.24q.07,2.67.27,5.31a112.69,112.69,0,0,0,1.51,11.72c.13.79.29,1.57.45,2.35.22,1.09.46,2.18.72,3.26.16.73.34,1.45.53,2.17a112.52,112.52,0,0,0,106.79,84.42c.73,0,1.45,0,2.18,0l1.79,0h.39l.41,0,1.27,0c.82,0,1.64-.09,2.46-.17.43,0,.87-.07,1.3-.12h.13l1.53-.17,1.21-.16h.1l1.32-.2.25,0,.3,0,1.27-.23c.21,0,.43-.07.64-.12l1.16-.23.46-.1,1.35-.31c1.07-.25,2.14-.53,3.19-.83.45-.12.89-.25,1.33-.39,1.48-.44,2.93-.94,4.36-1.47l1.22-.47.21-.08c.52-.2,1-.41,1.54-.64s1.12-.47,1.67-.73,1.11-.5,1.65-.77,1.09-.52,1.63-.81,1.08-.55,1.61-.85,1.06-.58,1.58-.88,1-.6,1.56-.92,1.09-.67,1.63-1c1.41-.91,2.78-1.85,4.11-2.84l.27-.2,1.4-1.08c.47-.36.94-.74,1.4-1.13s.91-.75,1.35-1.14a.27.27,0,0,0,.08-.07c.39-.34.78-.68,1.17-1,1.38-1.23,2.71-2.53,4-3.88.36-.38.73-.77,1.08-1.16.86-.94,1.7-1.89,2.5-2.88.39-.46.77-.93,1.13-1.4s.74-.95,1.1-1.43.71-1,1.06-1.46.58-.83.87-1.25l.16-.23c.33-.5.67-1,1-1.51s.57-.89.84-1.34c.38-.61.74-1.22,1.09-1.84s.56-1,.83-1.49.58-1.07.85-1.61.55-1.08.81-1.63c.53-1.09,1-2.2,1.5-3.32s1-2.46,1.46-3.71c.16-.44.32-.89.47-1.34l.45-1.36c.12-.39.24-.79.35-1.18s.23-.75.34-1.13.29-1.05.43-1.59a2.29,2.29,0,0,0,.07-.28c.13-.5.25-1,.37-1.5l.07-.28c.09-.41.18-.81.26-1.22.17-.79.33-1.59.47-2.39l.18-1.07.15-.95c.09-.57.17-1.15.24-1.73V563.6A74.6,74.6,0,0,0,615.17,608.88Z" transform="translate(-375.55 -338.62)"/><path class="cls-7" d="M731.74,737.64h0Z" transform="translate(-375.55 -338.62)"/><path class="cls-8" d="M430.72,442a102.87,102.87,0,0,0,21.81,63.51,75.08,75.08,0,0,0,62.14,57,112.3,112.3,0,0,1-98.09-83.67c-.18-.72-.36-1.44-.53-2.17-.26-1.08-.5-2.17-.72-3.26-.16-.78-.31-1.57-.45-2.35a112.69,112.69,0,0,1-1.51-11.72q-.19-2.64-.27-5.31c0-1.08-.05-2.16-.05-3.24s0-2.25.06-3.37c0-.8.05-1.6.09-2.41s.1-1.9.18-2.85.15-1.9.25-2.84q.33-3.33.87-6.59c.09-.61.2-1.21.3-1.8.18-1,.38-2,.59-3.05.17-.81.35-1.62.53-2.43s.43-1.81.66-2.71a112.27,112.27,0,0,1,108.69-84.17q2.26,0,4.5.09A103.39,103.39,0,0,0,430.72,442Z" transform="translate(-375.55 -338.62)"/><path class="cls-9" d="M807.42,655.86c-.35.21-.71.41-1.06.6l-.45.24C806.42,656.43,806.92,656.15,807.42,655.86Z" transform="translate(-375.55 -338.62)"/><path class="cls-9" d="M809,654.94c-.38.24-.77.47-1.16.7h0Z" transform="translate(-375.55 -338.62)"/><path class="cls-9" d="M813.5,652l-.36.26c-.37.26-.74.52-1.12.77Z" transform="translate(-375.55 -338.62)"/><path class="cls-10" d="M849,434.78l0,.05a36.39,36.39,0,0,1-8.3,12.63l0,0-.86.81-.11.1c-.29.26-.57.52-.87.77l-.07.06a34.65,34.65,0,0,1-4,2.93l0,0-1,.6-.07,0-.07,0-.65.36h0c-.16.1-.33.18-.5.27l-1.06.53-.49.23-.7.3-.36.15a32.15,32.15,0,0,1-6.44,1.94,33.09,33.09,0,0,1-6.09.57l-.92,0c-.56,0-1.13,0-1.69-.09h0l-.87-.08-.8-.1a3,3,0,0,1-.42-.06l-.5-.07c-.56-.09-1.13-.2-1.69-.32l-.83-.2c-.28-.06-.56-.13-.83-.21l-.82-.23c-.54-.17-1.08-.34-1.61-.54l-.8-.29h0c-.26-.09-.52-.2-.78-.31l-.78-.33c-.51-.23-1-.48-1.52-.73l-.75-.4-.74-.41-.72-.42-.71-.45h0l-.71-.46c-.23-.15-.46-.32-.69-.48-.46-.32-.9-.66-1.34-1h0a34.54,34.54,0,0,1-3.73-3.43,37.29,37.29,0,0,1-10.06-24.79v0c0-.3,0-.6,0-.9s0-.6,0-.9v0A37.31,37.31,0,0,1,793,395.11a34.54,34.54,0,0,1,3.73-3.43h0c.44-.35.88-.69,1.34-1l.69-.48.71-.46h0l.71-.45.72-.43.74-.41.75-.39c.5-.26,1-.5,1.52-.73l.78-.34.78-.31h0c.26-.11.53-.2.8-.3.53-.19,1.07-.37,1.61-.53l.82-.24.83-.21.83-.19c.56-.12,1.13-.23,1.69-.32l.5-.08.42-.06c.27,0,.53-.07.8-.09l.87-.09h0c.56,0,1.13-.07,1.69-.09h.92a32.24,32.24,0,0,1,6.09.57,32.79,32.79,0,0,1,6.44,1.93l.36.15.7.31.49.23c.36.17.71.34,1.06.53l.5.26h0c.22.12.44.24.65.37l.07,0,.07.05c.34.19.67.39,1,.6l0,0a33.43,33.43,0,0,1,4,2.92l.07.07c.3.25.58.5.87.76a1.14,1.14,0,0,1,.11.11c.29.26.58.53.86.81l0,0a36.34,36.34,0,0,1,8.3,12.64l0,.05c.2.5.39,1,.56,1.53l0,0a38.24,38.24,0,0,1,2,11.66c0-.21,0-.42,0-.63-.56-10.88-7.88-19.86-17.6-22.28a21.39,21.39,0,0,0-5.28-.65c-12.65,0-22.91,10.86-22.91,24.26s10.26,24.27,22.91,24.27a21.88,21.88,0,0,0,5.28-.65c9.72-2.43,17-11.41,17.6-22.29,0-.21,0-.41,0-.62a38.29,38.29,0,0,1-2,11.66l0,0C849.38,433.76,849.19,434.27,849,434.78Z" transform="translate(-375.55 -338.62)"/><path class="cls-11" d="M874.51,420.84c0,26.8-20.51,48.53-45.82,48.53-25,0-45.34-21.22-45.81-47.59A36.89,36.89,0,0,0,798,451q.35.25.69.48c.47.32.94.63,1.42.92.72.44,1.46.85,2.21,1.23.5.26,1,.5,1.52.73q.39.18.78.33c.52.22,1,.43,1.58.61s1.06.38,1.61.54l.82.23c.27.08.55.15.83.21s.55.14.83.2c.56.12,1.13.23,1.69.32l.5.07a3,3,0,0,0,.42.06l.8.1.87.08h0c.56.05,1.13.08,1.69.09l.92,0a33.09,33.09,0,0,0,6.09-.57,33.5,33.5,0,0,0,5.72-1.64h0l.71-.29.36-.15.7-.3.49-.23,1.06-.53.52-.28.65-.36.14-.08,1-.6,0,0A36.61,36.61,0,0,0,837.8,450h0c.31-.24.62-.5.93-.76l.07-.06c.3-.25.58-.51.87-.77l.11-.1.86-.81,0,0c.29-.29.58-.58.87-.89A36.7,36.7,0,0,0,849,434.83l0-.05c.2-.51.39-1,.56-1.53l0,0a38.2,38.2,0,0,0,2-11c0-.44,0-.88,0-1.33s0-.89,0-1.33a38.13,38.13,0,0,0-2-11l0,0c-.17-.52-.36-1-.56-1.53l0-.05a36.64,36.64,0,0,0-7.43-11.75l-.87-.89,0,0c-.28-.28-.57-.55-.86-.81a1.14,1.14,0,0,0-.11-.11c-.29-.26-.57-.51-.87-.76l-.07-.07-.93-.76h0a32.46,32.46,0,0,0-3.06-2.16l0,0c-.33-.21-.66-.41-1-.6l-.14-.08c-.21-.13-.43-.25-.65-.37l-.52-.27c-.35-.19-.7-.36-1.06-.53l-.49-.23-.7-.31-.36-.15-.71-.29h0a31.77,31.77,0,0,0-5.72-1.64,32.24,32.24,0,0,0-6.09-.57h-.92c-.56,0-1.13.05-1.69.09h0l-.87.09c-.27,0-.53.06-.8.09l-.42.06-.5.08c-.56.09-1.13.19-1.69.32l-.83.19c-.28.06-.56.14-.83.21s-.55.16-.82.24c-.55.16-1.08.34-1.61.53s-1.06.39-1.58.61l-.78.34c-.51.22-1,.47-1.52.73-.75.37-1.49.79-2.21,1.23-.48.29-.95.59-1.42.91q-.35.22-.69.48a36.91,36.91,0,0,0-15.15,29.24c.47-26.36,20.8-47.58,45.81-47.58C854,372.32,874.51,394,874.51,420.84Z" transform="translate(-375.55 -338.62)"/><path class="cls-12" d="M782.89,419.9A37.31,37.31,0,0,1,793,395.11a34.54,34.54,0,0,1,3.73-3.43h0a33.23,33.23,0,0,1,2.74-2h0c.47-.3,1-.59,1.43-.88l.74-.41a32.46,32.46,0,0,1,3.83-1.77h0a32.66,32.66,0,0,1,23.62,0h0a33.08,33.08,0,0,1,3.82,1.77l.74.41a34.92,34.92,0,0,1,4.18,2.84h0a35.6,35.6,0,0,1,3.74,3.43,37.32,37.32,0,0,1,10,24.4c-.56-10.88-7.88-19.86-17.6-22.28a29.36,29.36,0,0,0-20.68-8.6C796.8,388.63,783.36,402.55,782.89,419.9Z" transform="translate(-375.55 -338.62)"/><path class="cls-13" d="M484.8,771.55l0,.08a54.68,54.68,0,0,1-12.45,19l-.05,0c-.42.42-.85.82-1.28,1.22l-.18.16c-.42.39-.85.77-1.29,1.15l-.12.1a51.22,51.22,0,0,1-6,4.38l-.07.05-1.5.9-.11.06-.1.06c-.32.18-.64.37-1,.54l0,0-.76.4c-.53.27-1.05.54-1.59.79l-.74.34-1,.47-.54.22a48.77,48.77,0,0,1-18.8,3.76l-1.37,0c-.85,0-1.7-.07-2.54-.14h0l-1.31-.13-1.21-.14-.63-.09-.74-.12c-.85-.13-1.7-.29-2.54-.48-.42-.08-.83-.18-1.25-.28l-1.24-.32-1.23-.36c-.81-.24-1.62-.51-2.42-.79-.4-.15-.8-.29-1.19-.45h0l-1.17-.47-1.16-.5c-.77-.35-1.53-.71-2.29-1.1-.37-.19-.75-.38-1.11-.59l-1.11-.62c-.37-.2-.73-.42-1.09-.64l-1.07-.67h0l-1.06-.69-1-.73c-.69-.49-1.36-1-2-1.52h0a53.3,53.3,0,0,1-5.6-5.14,56,56,0,0,1-15.08-37.19V752c0-.45,0-.9,0-1.35s0-.9,0-1.35c0,0,0,0,0-.06a56,56,0,0,1,15.08-37.19,53.3,53.3,0,0,1,5.6-5.14h0c.66-.52,1.33-1,2-1.52l1-.72c.35-.24.71-.47,1.06-.69h0l1.07-.67,1.09-.64,1.11-.62,1.11-.59c.76-.38,1.52-.75,2.29-1.09.38-.18.77-.34,1.16-.51s.78-.32,1.17-.46h0l1.19-.44c.8-.29,1.61-.56,2.42-.8.41-.13.82-.24,1.23-.35s.83-.22,1.24-.33l1.25-.28c.84-.19,1.69-.35,2.54-.48.25-.05.49-.08.74-.11l.63-.1,1.21-.14c.43-.05.87-.09,1.31-.12h0c.84-.07,1.69-.11,2.54-.13.45,0,.91,0,1.37,0a49.25,49.25,0,0,1,9.14.85,48.66,48.66,0,0,1,9.65,2.9l.55.23,1,.46.74.34,1.59.79.76.4,0,0,1,.54.1.06.11.07q.76.43,1.5.9l.07,0a51.3,51.3,0,0,1,6,4.39l.12.1q.66.55,1.29,1.14l.18.16,1.28,1.22.05.05a54.77,54.77,0,0,1,12.45,18.95l0,.08c.3.76.58,1.52.85,2.3l0,.05a57.57,57.57,0,0,1,3.05,17.49c0-.31,0-.62,0-.94-.83-16.32-11.82-29.78-26.39-33.42a32.48,32.48,0,0,0-7.92-1c-19,0-34.37,16.29-34.37,36.39s15.39,36.4,34.37,36.4a33,33,0,0,0,7.92-1c14.57-3.64,25.56-17.11,26.39-33.43,0-.31,0-.63,0-.94a57.57,57.57,0,0,1-3.05,17.49l0,.06C485.38,770,485.1,770.8,484.8,771.55Z" transform="translate(-375.55 -338.62)"/><path class="cls-14" d="M523.09,750.65c0,40.2-30.78,72.79-68.74,72.79-37.51,0-68-31.83-68.72-71.38a55.35,55.35,0,0,0,22.73,43.86c.34.26.69.5,1,.73.7.48,1.41.93,2.13,1.36,1.08.66,2.19,1.29,3.31,1.85.76.39,1.52.76,2.29,1.1.38.18.77.34,1.16.5.78.33,1.57.64,2.37.92s1.6.56,2.42.79l1.23.36,1.24.32c.42.1.83.2,1.25.28.84.19,1.69.35,2.54.48.25,0,.49.09.74.12l.63.09,1.21.14,1.31.13h0c.84.07,1.69.11,2.54.14l1.37,0a48.9,48.9,0,0,0,17.72-3.32h0l1.07-.44.54-.22,1-.47.74-.34c.54-.25,1.06-.52,1.59-.79.26-.14.53-.27.79-.42l1-.54.21-.12,1.5-.9.07-.05A50.6,50.6,0,0,0,468,794.4h0c.46-.37.93-.75,1.38-1.13l.12-.1c.44-.38.87-.76,1.29-1.15l.18-.16c.43-.4.86-.8,1.28-1.22l.05,0c.44-.43.87-.88,1.3-1.33a54.92,54.92,0,0,0,11.15-17.62l0-.08c.3-.75.58-1.52.85-2.29l0-.06a57.46,57.46,0,0,0,3-16.55c0-.66,0-1.33,0-2s0-1.33,0-2a57.46,57.46,0,0,0-3-16.55l0-.05c-.27-.78-.55-1.54-.85-2.3l0-.08a55,55,0,0,0-11.15-17.62c-.43-.45-.86-.89-1.3-1.33l-.05-.05L471,709.45l-.18-.16q-.63-.59-1.29-1.14l-.12-.1c-.45-.39-.92-.77-1.38-1.14h0a52.67,52.67,0,0,0-4.59-3.24l-.07,0q-.74-.47-1.5-.9l-.21-.13-1-.54-.79-.42-1.59-.79-.74-.34-1-.46-.55-.23c-.35-.15-.7-.3-1.06-.43h0a48.61,48.61,0,0,0-17.72-3.31c-.46,0-.92,0-1.37,0-.85,0-1.7.06-2.54.13h0c-.44,0-.87.07-1.31.12l-1.21.14-.63.1c-.25,0-.49.06-.74.11-.85.13-1.7.29-2.54.48l-1.25.28c-.41.1-.83.21-1.24.33s-.82.22-1.23.35c-.82.24-1.62.5-2.42.8s-1.59.58-2.37.91c-.39.16-.78.33-1.16.51-.77.34-1.53.7-2.29,1.09-1.12.57-2.23,1.19-3.31,1.85-.72.43-1.43.89-2.13,1.37-.34.22-.69.47-1,.72a55.36,55.36,0,0,0-22.73,43.86c.71-39.55,31.21-71.38,68.72-71.38C492.31,677.86,523.09,710.45,523.09,750.65Z" transform="translate(-375.55 -338.62)"/><path class="cls-12" d="M385.65,749.24a56,56,0,0,1,15.08-37.19,53.3,53.3,0,0,1,5.6-5.14h0q2-1.56,4.11-2.93h0c.71-.45,1.43-.89,2.16-1.31l1.11-.62a48.82,48.82,0,0,1,5.73-2.65h0a49.2,49.2,0,0,1,35.43,0h0a49.73,49.73,0,0,1,5.74,2.65l1.1.62A52.3,52.3,0,0,1,468,706.9h0a53.3,53.3,0,0,1,5.6,5.14,56,56,0,0,1,15.06,36.6c-.83-16.32-11.82-29.78-26.39-33.42a44.14,44.14,0,0,0-31-12.9C406.5,702.33,386.35,723.21,385.65,749.24Z" transform="translate(-375.55 -338.62)"/></svg>