<svg width="325" height="40" viewBox="0 0 325 40" fill="none" xmlns="http://www.w3.org/2000/svg">
<path id="ANKIT JAIN" d="M23.9766 24.0107V26.0107H25.9766V24.0107H23.9766ZM23.415 14.2939L21.5679 15.0607L21.5767 15.0819L21.586 15.103L23.415 14.2939ZM19.6797 10.5586L18.8707 12.3877L18.8917 12.397L18.9129 12.4058L19.6797 10.5586ZM14.2354 10.5586L15.0146 12.4005L15.0231 12.3969L15.0315 12.3933L14.2354 10.5586ZM10.5 14.2939L8.66531 13.4978L8.66165 13.5062L8.65807 13.5147L10.5 14.2939ZM9.96289 24.0107H7.96289V26.0107H9.96289V24.0107ZM30.9834 38V40H32.9834V38H30.9834ZM23.9766 38H21.9766V40H23.9766V38ZM23.9766 30.9932H25.9766V28.9932H23.9766V30.9932ZM9.96289 30.9932V28.9932H7.96289V30.9932H9.96289ZM9.96289 38V40H11.9629V38H9.96289ZM2.98047 38H0.980469V40H2.98047V38ZM4.0791 11.5596L5.91465 12.3538L5.91739 12.3474L4.0791 11.5596ZM7.05762 7.0918L5.64337 5.67755L5.63431 5.68674L7.05762 7.0918ZM11.501 4.08887L10.7131 2.25057L10.7068 2.25333L11.501 4.08887ZM22.4141 4.08887L21.6198 5.92442L21.6262 5.92716L22.4141 4.08887ZM29.8848 11.5596L28.0465 12.3474L28.0492 12.3538L29.8848 11.5596ZM25.9766 24.0107V17.0039H21.9766V24.0107H25.9766ZM25.9766 17.0039C25.9766 15.7757 25.7354 14.5957 25.2441 13.4849L21.586 15.103C21.8433 15.6849 21.9766 16.3115 21.9766 17.0039H25.9766ZM25.2622 13.5272C24.8078 12.4324 24.1676 11.4613 23.34 10.6336L20.5116 13.4621C20.9535 13.904 21.3061 14.4302 21.5679 15.0607L25.2622 13.5272ZM23.34 10.6336C22.5124 9.80602 21.5412 9.16584 20.4464 8.71141L18.9129 12.4058C19.5434 12.6675 20.0697 13.0201 20.5116 13.4621L23.34 10.6336ZM20.4887 8.72952C19.3779 8.2382 18.1979 7.99707 16.9697 7.99707V11.9971C17.6621 11.9971 18.2888 12.1303 18.8707 12.3877L20.4887 8.72952ZM16.9697 7.99707C15.7415 7.99707 14.5585 8.23816 13.4392 8.7239L15.0315 12.3933C15.6375 12.1303 16.2774 11.9971 16.9697 11.9971V7.99707ZM13.4561 8.71666C12.3783 9.17266 11.4207 9.81238 10.5995 10.6336L13.4279 13.4621C13.8762 13.0138 14.3997 12.6607 15.0146 12.4005L13.4561 8.71666ZM10.5995 10.6336C9.77856 11.4545 9.13491 12.4156 8.66531 13.4978L12.3347 15.0901C12.6138 14.447 12.9792 13.9107 13.4279 13.4621L10.5995 10.6336ZM8.65807 13.5147C8.191 14.6186 7.96289 15.7882 7.96289 17.0039H11.9629C11.9629 16.2991 12.0929 15.662 12.3419 15.0732L8.65807 13.5147ZM7.96289 17.0039V24.0107H11.9629V17.0039H7.96289ZM9.96289 26.0107H23.9766V22.0107H9.96289V26.0107ZM30.9834 36H23.9766V40H30.9834V36ZM25.9766 38V30.9932H21.9766V38H25.9766ZM23.9766 28.9932H9.96289V32.9932H23.9766V28.9932ZM7.96289 30.9932V38H11.9629V30.9932H7.96289ZM9.96289 36H2.98047V40H9.96289V36ZM4.98047 38V17.0039H0.980469V38H4.98047ZM4.98047 17.0039C4.98047 15.3263 5.29612 13.7833 5.91464 12.3538L2.24356 10.7653C1.39724 12.7213 0.980469 14.8078 0.980469 17.0039H4.98047ZM5.91739 12.3474C6.55553 10.8584 7.41076 9.58092 8.48093 8.49686L5.63431 5.68674C4.19796 7.14174 3.06752 8.84274 2.24081 10.7717L5.91739 12.3474ZM8.47183 8.50601C9.5582 7.41964 10.8274 6.5595 12.2952 5.92441L10.7068 2.25333C8.78911 3.08307 7.09609 4.22489 5.6434 5.67758L8.47183 8.50601ZM12.2888 5.92716C13.7385 5.30588 15.2922 4.99023 16.9697 4.99023V0.990234C14.7736 0.990234 12.6815 1.40701 10.7131 2.25058L12.2888 5.92716ZM16.9697 4.99023C18.6473 4.99023 20.1904 5.30588 21.6198 5.92441L23.2083 2.25333C21.2523 1.40701 19.1658 0.990234 16.9697 0.990234V4.99023ZM21.6262 5.92716C23.1098 6.56299 24.3844 7.42281 25.4676 8.50601L28.296 5.67758C26.8402 4.22172 25.1363 3.07959 23.2019 2.25058L21.6262 5.92716ZM25.4676 8.50601C26.5508 9.58921 27.4106 10.8638 28.0465 12.3474L31.7231 10.7717C30.894 8.83736 29.7519 7.13344 28.296 5.67758L25.4676 8.50601ZM28.0492 12.3538C28.6677 13.7833 28.9834 15.3263 28.9834 17.0039H32.9834C32.9834 14.8078 32.5666 12.7213 31.7203 10.7653L28.0492 12.3538ZM28.9834 17.0039V38H32.9834V17.0039H28.9834ZM72.5654 38V40H74.5654V38H72.5654ZM65.0703 38L63.3446 39.0109L63.924 40H65.0703V38ZM51.5693 14.9531L53.295 13.9422L49.5693 7.58224V14.9531H51.5693ZM51.5693 38V40H53.5693V38H51.5693ZM44.5625 38H42.5625V40H44.5625V38ZM44.5625 2.99023V0.990234H42.5625V2.99023H44.5625ZM52.0576 2.99023L53.7838 1.98011L53.2045 0.990234H52.0576V2.99023ZM65.5586 26.0615L63.8324 27.0716L67.5586 33.4391V26.0615H65.5586ZM65.5586 2.99023V0.990234H63.5586V2.99023H65.5586ZM72.5654 2.99023H74.5654V0.990234H72.5654V2.99023ZM72.5654 36H65.0703V40H72.5654V36ZM66.796 36.9891L53.295 13.9422L49.8436 15.964L63.3446 39.0109L66.796 36.9891ZM49.5693 14.9531V38H53.5693V14.9531H49.5693ZM51.5693 36H44.5625V40H51.5693V36ZM46.5625 38V2.99023H42.5625V38H46.5625ZM44.5625 4.99023H52.0576V0.990234H44.5625V4.99023ZM50.3315 4.00036L63.8324 27.0716L67.2848 25.0514L53.7838 1.98011L50.3315 4.00036ZM67.5586 26.0615V2.99023H63.5586V26.0615H67.5586ZM65.5586 4.99023H72.5654V0.990234H65.5586V4.99023ZM70.5654 2.99023V38H74.5654V2.99023H70.5654ZM93.5908 38V40H95.5908V38H93.5908ZM86.584 38H84.584V40H86.584V38ZM86.584 2.99023V0.990234H84.584V2.99023H86.584ZM93.5908 2.99023H95.5908V0.990234H93.5908V2.99023ZM93.5908 20.4951H91.5908V26.5288L95.1948 21.6897L93.5908 20.4951ZM106.628 2.99023V0.990234H105.624L105.024 1.79561L106.628 2.99023ZM114.587 2.99023L116.188 4.18896L118.583 0.990234H114.587V2.99023ZM103.527 17.7607L101.926 16.562L101.156 17.5914L101.772 18.7198L103.527 17.7607ZM114.587 38V40H117.959L116.342 37.041L114.587 38ZM106.628 38L104.87 38.9545L105.438 40H106.628V38ZM98.9375 23.8398L100.695 22.8853L99.2049 20.1415L97.3355 22.6425L98.9375 23.8398ZM93.5908 30.9932L91.9889 29.7958L91.5908 30.3283V30.9932H93.5908ZM93.5908 36H86.584V40H93.5908V36ZM88.584 38V2.99023H84.584V38H88.584ZM86.584 4.99023H93.5908V0.990234H86.584V4.99023ZM91.5908 2.99023V20.4951H95.5908V2.99023H91.5908ZM95.1948 21.6897L108.232 4.18486L105.024 1.79561L91.9868 19.3005L95.1948 21.6897ZM106.628 4.99023H114.587V0.990234H106.628V4.99023ZM112.986 1.7915L101.926 16.562L105.128 18.9595L116.188 4.18896L112.986 1.7915ZM101.772 18.7198L112.832 38.959L116.342 37.041L105.282 16.8017L101.772 18.7198ZM114.587 36H106.628V40H114.587V36ZM108.385 37.0455L100.695 22.8853L97.18 24.7944L104.87 38.9545L108.385 37.0455ZM97.3355 22.6425L91.9889 29.7958L95.1928 32.1905L100.539 25.0372L97.3355 22.6425ZM91.5908 30.9932V38H95.5908V30.9932H91.5908ZM132.341 38V40H134.341V38H132.341ZM125.334 38H123.334V40H125.334V38ZM125.334 2.99023V0.990234H123.334V2.99023H125.334ZM132.341 2.99023H134.341V0.990234H132.341V2.99023ZM132.341 36H125.334V40H132.341V36ZM127.334 38V2.99023H123.334V38H127.334ZM125.334 4.99023H132.341V0.990234H125.334V4.99023ZM130.341 2.99023V38H134.341V2.99023H130.341ZM161.057 38V40H163.057V38H161.057ZM154.074 38H152.074V40H154.074V38ZM154.074 9.99707H156.074V7.99707H154.074V9.99707ZM143.552 9.99707H141.552V11.9971H143.552V9.99707ZM143.552 2.99023V0.990234H141.552V2.99023H143.552ZM171.555 2.99023H173.555V0.990234H171.555V2.99023ZM171.555 9.99707V11.9971H173.555V9.99707H171.555ZM161.057 9.99707V7.99707H159.057V9.99707H161.057ZM161.057 36H154.074V40H161.057V36ZM156.074 38V9.99707H152.074V38H156.074ZM154.074 7.99707H143.552V11.9971H154.074V7.99707ZM145.552 9.99707V2.99023H141.552V9.99707H145.552ZM143.552 4.99023H171.555V0.990234H143.552V4.99023ZM169.555 2.99023V9.99707H173.555V2.99023H169.555ZM171.555 7.99707H161.057V11.9971H171.555V7.99707ZM159.057 9.99707V38H163.057V9.99707H159.057ZM217.927 29.4795L219.762 30.2737L219.765 30.2673L217.927 29.4795ZM210.48 36.9014L209.693 35.0631L209.686 35.0658L210.48 36.9014ZM201.521 37.5605H199.521V39.1221L201.035 39.5008L201.521 37.5605ZM201.521 30.041L202.542 28.3213L199.521 26.5275V30.041H201.521ZM203.205 30.749L202.683 32.6798L203.205 30.749ZM207.746 30.4561L208.525 32.298L208.534 32.2944L208.542 32.2907L207.746 30.4561ZM211.481 26.7207L209.652 25.9117L209.646 25.9265L209.64 25.9414L211.481 26.7207ZM212.043 2.99023V0.990234H210.043V2.99023H212.043ZM219.025 2.99023H221.025V0.990234H219.025V2.99023ZM217.025 24.0107C217.025 25.6883 216.71 27.242 216.088 28.6917L219.765 30.2673C220.609 28.299 221.025 26.2069 221.025 24.0107H217.025ZM216.091 28.6853C215.456 30.153 214.596 31.4223 213.51 32.5086L216.338 35.3371C217.791 33.8844 218.933 32.1914 219.762 30.2737L216.091 28.6853ZM213.51 32.5086C212.445 33.5732 211.179 34.4259 209.693 35.0631L211.268 38.7397C213.2 37.912 214.896 36.779 216.338 35.3371L213.51 32.5086ZM209.686 35.0658C208.257 35.6844 206.714 36 205.036 36V40C207.232 40 209.319 39.5832 211.275 38.7369L209.686 35.0658ZM205.036 36C204.033 36 203.024 35.8748 202.006 35.6203L201.035 39.5008C202.361 39.8322 203.696 40 205.036 40V36ZM203.521 37.5605V30.041H199.521V37.5605H203.521ZM200.499 31.7607C201.181 32.1654 201.911 32.4711 202.683 32.6798L203.727 28.8183C203.295 28.7015 202.902 28.5351 202.542 28.3213L200.499 31.7607ZM202.683 32.6798C203.454 32.8881 204.24 32.9932 205.036 32.9932V28.9932C204.595 28.9932 204.16 28.9355 203.727 28.8183L202.683 32.6798ZM205.036 32.9932C206.252 32.9932 207.421 32.7651 208.525 32.298L206.967 28.6141C206.378 28.8632 205.741 28.9932 205.036 28.9932V32.9932ZM208.542 32.2907C209.624 31.8211 210.586 31.1775 211.406 30.3566L208.578 27.5282C208.129 27.9768 207.593 28.3423 206.95 28.6214L208.542 32.2907ZM211.406 30.3566C212.228 29.5353 212.867 28.5778 213.323 27.5L209.64 25.9414C209.379 26.5563 209.026 27.0799 208.578 27.5282L211.406 30.3566ZM213.311 27.5297C213.802 26.4189 214.043 25.2389 214.043 24.0107H210.043C210.043 24.7031 209.91 25.3298 209.652 25.9117L213.311 27.5297ZM214.043 24.0107V2.99023H210.043V24.0107H214.043ZM212.043 4.99023H219.025V0.990234H212.043V4.99023ZM217.025 2.99023V24.0107H221.025V2.99023H217.025ZM252.99 24.0107V26.0107H254.99V24.0107H252.99ZM252.429 14.2939L250.582 15.0607L250.59 15.0819L250.6 15.103L252.429 14.2939ZM248.693 10.5586L247.884 12.3877L247.905 12.397L247.927 12.4058L248.693 10.5586ZM243.249 10.5586L244.028 12.4005L244.037 12.3969L244.045 12.3933L243.249 10.5586ZM239.514 14.2939L237.679 13.4978L237.675 13.5062L237.672 13.5147L239.514 14.2939ZM238.977 24.0107H236.977V26.0107H238.977V24.0107ZM259.997 38V40H261.997V38H259.997ZM252.99 38H250.99V40H252.99V38ZM252.99 30.9932H254.99V28.9932H252.99V30.9932ZM238.977 30.9932V28.9932H236.977V30.9932H238.977ZM238.977 38V40H240.977V38H238.977ZM231.994 38H229.994V40H231.994V38ZM233.093 11.5596L234.928 12.3538L234.931 12.3474L233.093 11.5596ZM236.071 7.0918L234.657 5.67755L234.648 5.68674L236.071 7.0918ZM240.515 4.08887L239.727 2.25057L239.72 2.25333L240.515 4.08887ZM251.428 4.08887L250.634 5.92442L250.64 5.92716L251.428 4.08887ZM258.898 11.5596L257.06 12.3474L257.063 12.3538L258.898 11.5596ZM254.99 24.0107V17.0039H250.99V24.0107H254.99ZM254.99 17.0039C254.99 15.7757 254.749 14.5957 254.258 13.4849L250.6 15.103C250.857 15.6849 250.99 16.3115 250.99 17.0039H254.99ZM254.276 13.5272C253.821 12.4324 253.181 11.4613 252.354 10.6336L249.525 13.4621C249.967 13.904 250.32 14.4302 250.582 15.0607L254.276 13.5272ZM252.354 10.6336C251.526 9.80602 250.555 9.16584 249.46 8.71141L247.927 12.4058C248.557 12.6675 249.083 13.0201 249.525 13.4621L252.354 10.6336ZM249.502 8.72952C248.392 8.2382 247.212 7.99707 245.983 7.99707V11.9971C246.676 11.9971 247.302 12.1303 247.884 12.3877L249.502 8.72952ZM245.983 7.99707C244.755 7.99707 243.572 8.23816 242.453 8.7239L244.045 12.3933C244.651 12.1303 245.291 11.9971 245.983 11.9971V7.99707ZM242.47 8.71666C241.392 9.17266 240.434 9.81238 239.613 10.6336L242.442 13.4621C242.89 13.0138 243.413 12.6607 244.028 12.4005L242.47 8.71666ZM239.613 10.6336C238.792 11.4545 238.149 12.4156 237.679 13.4978L241.348 15.0901C241.627 14.447 241.993 13.9107 242.442 13.4621L239.613 10.6336ZM237.672 13.5147C237.205 14.6186 236.977 15.7882 236.977 17.0039H240.977C240.977 16.2991 241.107 15.662 241.356 15.0732L237.672 13.5147ZM236.977 17.0039V24.0107H240.977V17.0039H236.977ZM238.977 26.0107H252.99V22.0107H238.977V26.0107ZM259.997 36H252.99V40H259.997V36ZM254.99 38V30.9932H250.99V38H254.99ZM252.99 28.9932H238.977V32.9932H252.99V28.9932ZM236.977 30.9932V38H240.977V30.9932H236.977ZM238.977 36H231.994V40H238.977V36ZM233.994 38V17.0039H229.994V38H233.994ZM233.994 17.0039C233.994 15.3263 234.31 13.7833 234.928 12.3538L231.257 10.7653C230.411 12.7213 229.994 14.8078 229.994 17.0039H233.994ZM234.931 12.3474C235.569 10.8584 236.424 9.58092 237.495 8.49686L234.648 5.68674C233.212 7.14174 232.081 8.84274 231.254 10.7717L234.931 12.3474ZM237.486 8.50601C238.572 7.41964 239.841 6.5595 241.309 5.92441L239.72 2.25333C237.803 3.08307 236.11 4.22489 234.657 5.67758L237.486 8.50601ZM241.302 5.92716C242.752 5.30588 244.306 4.99023 245.983 4.99023V0.990234C243.787 0.990234 241.695 1.40701 239.727 2.25058L241.302 5.92716ZM245.983 4.99023C247.661 4.99023 249.204 5.30588 250.634 5.92441L252.222 2.25333C250.266 1.40701 248.179 0.990234 245.983 0.990234V4.99023ZM250.64 5.92716C252.123 6.56299 253.398 7.42281 254.481 8.50601L257.31 5.67758C255.854 4.22172 254.15 3.07959 252.216 2.25058L250.64 5.92716ZM254.481 8.50601C255.564 9.58921 256.424 10.8638 257.06 12.3474L260.737 10.7717C259.908 8.83736 258.766 7.13344 257.31 5.67758L254.481 8.50601ZM257.063 12.3538C257.681 13.7833 257.997 15.3263 257.997 17.0039H261.997C261.997 14.8078 261.58 12.7213 260.734 10.7653L257.063 12.3538ZM257.997 17.0039V38H261.997V17.0039H257.997ZM280.583 38V40H282.583V38H280.583ZM273.576 38H271.576V40H273.576V38ZM273.576 2.99023V0.990234H271.576V2.99023H273.576ZM280.583 2.99023H282.583V0.990234H280.583V2.99023ZM280.583 36H273.576V40H280.583V36ZM275.576 38V2.99023H271.576V38H275.576ZM273.576 4.99023H280.583V0.990234H273.576V4.99023ZM278.583 2.99023V38H282.583V2.99023H278.583ZM322.604 38V40H324.604V38H322.604ZM315.109 38L313.384 39.0109L313.963 40H315.109V38ZM301.608 14.9531L303.334 13.9422L299.608 7.58224V14.9531H301.608ZM301.608 38V40H303.608V38H301.608ZM294.602 38H292.602V40H294.602V38ZM294.602 2.99023V0.990234H292.602V2.99023H294.602ZM302.097 2.99023L303.823 1.98011L303.244 0.990234H302.097V2.99023ZM315.598 26.0615L313.871 27.0716L317.598 33.4391V26.0615H315.598ZM315.598 2.99023V0.990234H313.598V2.99023H315.598ZM322.604 2.99023H324.604V0.990234H322.604V2.99023ZM322.604 36H315.109V40H322.604V36ZM316.835 36.9891L303.334 13.9422L299.883 15.964L313.384 39.0109L316.835 36.9891ZM299.608 14.9531V38H303.608V14.9531H299.608ZM301.608 36H294.602V40H301.608V36ZM296.602 38V2.99023H292.602V38H296.602ZM294.602 4.99023H302.097V0.990234H294.602V4.99023ZM300.371 4.00036L313.871 27.0716L317.324 25.0514L303.823 1.98011L300.371 4.00036ZM317.598 26.0615V2.99023H313.598V26.0615H317.598ZM315.598 4.99023H322.604V0.990234H315.598V4.99023ZM320.604 2.99023V38H324.604V2.99023H320.604Z" fill="black"/>
</svg>
