<?xml version="1.0" encoding="UTF-8" standalone="no" ?>
<!DOCTYPE svg PUBLIC "-//W3C//DTD SVG 1.1//EN" "http://www.w3.org/Graphics/SVG/1.1/DTD/svg11.dtd">
<svg xmlns="http://www.w3.org/2000/svg" xmlns:xlink="http://www.w3.org/1999/xlink" version="1.1" width="139.7679" height="126.8144" xml:space="preserve">
<desc>Created with Fabric.js 1.6.0-rc.1</desc>
<defs></defs>
<g style="stroke: none; stroke-width: 1; stroke-dasharray: none; stroke-linecap: butt; stroke-linejoin: miter; stroke-miterlimit: 10; fill: none; fill-rule: nonzero; opacity: 1;" transform="translate(60 43.99999999999999) scale(1.18 1.36)" >
  <polygon points="110.27,108.38 140.27,108.38 140.27,90.38 149.06,90.38 125.11,69.75 100.94,90.38 110.27,90.38 " style="stroke: none; stroke-width: 1; stroke-dasharray: none; stroke-linecap: butt; stroke-linejoin: miter; stroke-miterlimit: 10; fill: #152a49; fill-rule: nonzero; opacity: 0;" transform="  matrix(1 0 0 1 -100.944 -55.835128) "/>
  <path d="m 130.074 70.643 l 6.569 0 l 0 26.522 c 0 2.595 -1.034 4.649 -3.104 6.168 c -2.069 1.518 -4.685 2.277 -7.845 2.277 c -3.432 0 -6.149 -0.683 -8.15 -2.047 c -2.002 -1.364 -2.965 -3.374 -2.89 -6.029 l 0.045 -1.714 l 6.412 0 c 0 1.407 0.413 3.349 1.242 3.991 c 0.827 0.643 1.941 0.963 3.341 0.963 c 1.219 0 2.254 -0.383 3.104 -1.151 c 0.85 -0.769 1.275 -1.82 1.275 -3.16 l 0 -25.82 z" style="stroke: none; stroke-width: 1; stroke-dasharray: none; stroke-linecap: butt; stroke-linejoin: miter; stroke-miterlimit: 10; fill: #f26f57; fill-rule: nonzero; opacity: 1;" transform=" matrix(1 0 0 1 -100.944 -55.835128) " stroke-linecap="round" />
  <path d="m 136.505 60.477 c -0.157 -1.685 -1.573 -3.003 -3.299 -3.003 c -1.831 0 -3.315 1.485 -3.315 3.316 c 0 0.267 0.035 0.524 0.094 0.773 c -1.513 0.131 -2.701 1.4 -2.701 2.947 c 0 1.636 1.326 2.961 2.961 2.961 c 0.24 0 0.473 -0.031 0.696 -0.085 c 0.576 0.712 1.455 1.169 2.442 1.169 c 0.97 0 1.836 -0.44 2.412 -1.132 c 0.067 0.004 0.134 0.01 0.203 0.01 c 1.932 0 3.498 -1.566 3.498 -3.499 c 0 -1.758 -1.301 -3.21 -2.991 -3.457 z" style="stroke: none; stroke-width: 1; stroke-dasharray: none; stroke-linecap: butt; stroke-linejoin: miter; stroke-miterlimit: 10; fill: #e07e2d; fill-rule: nonzero; opacity: 0;" transform=" matrix(1 0 0 1 -100.944 -55.835128) " stroke-linecap="round" />
  <path d="m 146.08 59.116 c 0.706 -0.665 0.801 -1.77 0.193 -2.55 c -0.646 -0.827 -1.84 -0.974 -2.667 -0.329 c -0.121 0.095 -0.225 0.201 -0.316 0.316 c -0.593 -0.637 -1.585 -0.727 -2.286 -0.181 c -0.738 0.577 -0.87 1.643 -0.293 2.382 c 0.086 0.109 0.182 0.202 0.285 0.285 c -0.119 0.51 -0.016 1.068 0.333 1.516 c 0.342 0.438 0.847 0.674 1.361 0.689 c 0.022 0.032 0.043 0.064 0.066 0.096 c 0.682 0.872 1.943 1.028 2.816 0.347 c 0.796 -0.62 0.993 -1.72 0.508 -2.571 z" style="stroke: none; stroke-width: 1; stroke-dasharray: none; stroke-linecap: butt; stroke-linejoin: miter; stroke-miterlimit: 10; fill: #e07e2d; fill-rule: nonzero; opacity: 0;" transform=" matrix(1 0 0 1 -100.944 -55.835128) " stroke-linecap="round" />
</g>
<g style="stroke: none; stroke-width: 1; stroke-dasharray: none; stroke-linecap: butt; stroke-linejoin: miter; stroke-miterlimit: 10; fill: none; fill-rule: nonzero; opacity: 1;" transform="translate(10 10) scale(1.61 1.61)" >
  <path d="m 123.707 105.472 c -14.605 0 -26.444 -11.839 -26.444 -26.443 c 0 -14.604 11.839 -26.443 26.444 -26.443 c 3.951 0 7.695 0.872 11.062 2.425 c -4.366 -2.54 -9.438 -4 -14.854 -4 c -16.352 0 -29.607 13.255 -29.607 29.606 c 0 16.351 13.256 29.607 29.607 29.607 c 13.82 0 25.427 -9.47 28.689 -22.274 c -3.662 10.214 -13.424 17.522 -24.897 17.522 z" style="stroke: none; stroke-width: 1; stroke-dasharray: none; stroke-linecap: butt; stroke-linejoin: miter; stroke-miterlimit: 10; fill: #f5c876; fill-rule: nonzero; opacity: 1;" transform=" matrix(0.999999972746846 0 0 0.999999972746846 -90.30799753882218 -51.01099860978937) " stroke-linecap="round" />
  <polygon points="120.36,70.98 100.86,99.98 120.36,56.68 145.49,109.91 " style="stroke: none; stroke-width: 1; stroke-dasharray: none; stroke-linecap: butt; stroke-linejoin: miter; stroke-miterlimit: 10; fill: #000; fill-rule: nonzero; opacity: 1;" transform="  matrix(0.999999972746846 0 0 0.999999972746846 -90.30799753882218 -51.01099860978937) "/>
  <path d="m 163.694 83.296 c 0 0 -58.069 -7.885 -60.669 0 c -2.6 7.885 60.669 0 60.669 0 z" style="stroke: none; stroke-width: 1; stroke-dasharray: none; stroke-linecap: butt; stroke-linejoin: miter; stroke-miterlimit: 10; fill: #de6b50; fill-rule: nonzero; opacity: 1;" transform=" matrix(0.999999972746846 0 0 0.999999972746846 -90.30799753882218 -51.01099860978937) " stroke-linecap="round" />
</g>
</svg>